<?xml version="1.0" encoding="UTF-8" standalone="no"?>
<!DOCTYPE svg PUBLIC "-//W3C//DTD SVG 1.1//EN"
 "http://www.w3.org/Graphics/SVG/1.1/DTD/svg11.dtd">
<!-- Generated by graphviz version 2.38.0 (20140413.2041)
 -->
<!-- Title: G Pages: 1 -->
<svg width="648pt" height="268pt"
 viewBox="0.00 0.00 648.32 267.98" xmlns="http://www.w3.org/2000/svg" xmlns:xlink="http://www.w3.org/1999/xlink">
<g id="graph0" class="graph" transform="scale(1 1) rotate(0) translate(7.992 259.992)">
<title>G</title>
<polygon fill="#000000" stroke="none" points="-7.992,7.992 -7.992,-259.992 640.329,-259.992 640.329,7.992 -7.992,7.992"/>
<!-- src/args&#45;to&#45;object -->
<g id="node1" class="node"><title>src/args&#45;to&#45;object</title>
<ellipse fill="none" stroke="#c6c5fe" cx="83.1926" cy="-162" rx="83.3857" ry="18"/>
<text text-anchor="middle" x="83.1926" y="-158.3" font-family="Arial" font-size="14.00" fill="#c6c5fe">src/args&#45;to&#45;object</text>
</g>
<!-- src/transform -->
<g id="node2" class="node"><title>src/transform</title>
<ellipse fill="none" stroke="#c6c5fe" cx="282.193" cy="-90" rx="64.9885" ry="18"/>
<text text-anchor="middle" x="282.193" y="-86.3" font-family="Arial" font-size="14.00" fill="#c6c5fe">src/transform</text>
</g>
<!-- src/args&#45;to&#45;object&#45;&gt;src/transform -->
<g id="edge1" class="edge"><title>src/args&#45;to&#45;object&#45;&gt;src/transform</title>
<path fill="none" stroke="#757575" d="M124.91,-146.326C156.755,-135.124 200.686,-119.671 234.026,-107.943"/>
<polygon fill="#757575" stroke="#757575" points="235.296,-111.207 243.568,-104.587 232.973,-104.603 235.296,-111.207"/>
</g>
<!-- src/spec&#45;options&#45;transform -->
<g id="node7" class="node"><title>src/spec&#45;options&#45;transform</title>
<ellipse fill="none" stroke="#cfffac" cx="282.193" cy="-18" rx="121.578" ry="18"/>
<text text-anchor="middle" x="282.193" y="-14.3" font-family="Arial" font-size="14.00" fill="#cfffac">src/spec&#45;options&#45;transform</text>
</g>
<!-- src/transform&#45;&gt;src/spec&#45;options&#45;transform -->
<g id="edge10" class="edge"><title>src/transform&#45;&gt;src/spec&#45;options&#45;transform</title>
<path fill="none" stroke="#757575" d="M282.193,-71.6966C282.193,-63.9827 282.193,-54.7125 282.193,-46.1124"/>
<polygon fill="#757575" stroke="#757575" points="285.693,-46.1043 282.193,-36.1043 278.693,-46.1044 285.693,-46.1043"/>
</g>
<!-- src/index -->
<g id="node3" class="node"><title>src/index</title>
<ellipse fill="none" stroke="#c6c5fe" cx="282.193" cy="-234" rx="48.1917" ry="18"/>
<text text-anchor="middle" x="282.193" y="-230.3" font-family="Arial" font-size="14.00" fill="#c6c5fe">src/index</text>
</g>
<!-- src/index&#45;&gt;src/args&#45;to&#45;object -->
<g id="edge2" class="edge"><title>src/index&#45;&gt;src/args&#45;to&#45;object</title>
<path fill="none" stroke="#757575" d="M248.435,-221.125C217.216,-210.144 170.368,-193.665 134.518,-181.054"/>
<polygon fill="#757575" stroke="#757575" points="135.315,-177.624 124.72,-177.608 132.992,-184.228 135.315,-177.624"/>
</g>
<!-- src/index&#45;&gt;src/transform -->
<g id="edge6" class="edge"><title>src/index&#45;&gt;src/transform</title>
<path fill="none" stroke="#757575" d="M253.748,-219.297C238.721,-210.386 221.673,-197.207 213.193,-180 206.12,-165.648 206.12,-158.352 213.193,-144 219.694,-130.808 231.232,-119.984 243.034,-111.635"/>
<polygon fill="#757575" stroke="#757575" points="245.176,-114.415 251.606,-105.994 241.328,-108.567 245.176,-114.415"/>
</g>
<!-- src/to&#45;async -->
<g id="node4" class="node"><title>src/to&#45;async</title>
<ellipse fill="none" stroke="#c6c5fe" cx="282.193" cy="-162" rx="60.3893" ry="18"/>
<text text-anchor="middle" x="282.193" y="-158.3" font-family="Arial" font-size="14.00" fill="#c6c5fe">src/to&#45;async</text>
</g>
<!-- src/index&#45;&gt;src/to&#45;async -->
<g id="edge3" class="edge"><title>src/index&#45;&gt;src/to&#45;async</title>
<path fill="none" stroke="#757575" d="M282.193,-215.697C282.193,-207.983 282.193,-198.712 282.193,-190.112"/>
<polygon fill="#757575" stroke="#757575" points="285.693,-190.104 282.193,-180.104 278.693,-190.104 285.693,-190.104"/>
</g>
<!-- src/to&#45;method -->
<g id="node5" class="node"><title>src/to&#45;method</title>
<ellipse fill="none" stroke="#c6c5fe" cx="428.193" cy="-162" rx="67.6881" ry="18"/>
<text text-anchor="middle" x="428.193" y="-158.3" font-family="Arial" font-size="14.00" fill="#c6c5fe">src/to&#45;method</text>
</g>
<!-- src/index&#45;&gt;src/to&#45;method -->
<g id="edge4" class="edge"><title>src/index&#45;&gt;src/to&#45;method</title>
<path fill="none" stroke="#757575" d="M310.689,-219.337C332.618,-208.824 363.21,-194.156 387.682,-182.423"/>
<polygon fill="#757575" stroke="#757575" points="389.226,-185.564 396.73,-178.085 386.2,-179.252 389.226,-185.564"/>
</g>
<!-- src/to&#45;result -->
<g id="node6" class="node"><title>src/to&#45;result</title>
<ellipse fill="none" stroke="#c6c5fe" cx="573.193" cy="-162" rx="59.2899" ry="18"/>
<text text-anchor="middle" x="573.193" y="-158.3" font-family="Arial" font-size="14.00" fill="#c6c5fe">src/to&#45;result</text>
</g>
<!-- src/index&#45;&gt;src/to&#45;result -->
<g id="edge5" class="edge"><title>src/index&#45;&gt;src/to&#45;result</title>
<path fill="none" stroke="#757575" d="M322.107,-223.661C366.753,-213.181 441.209,-195.601 505.193,-180 509.755,-178.887 514.488,-177.724 519.235,-176.55"/>
<polygon fill="#757575" stroke="#757575" points="520.088,-179.945 528.951,-174.14 518.403,-173.151 520.088,-179.945"/>
</g>
<!-- src/to&#45;async&#45;&gt;src/transform -->
<g id="edge7" class="edge"><title>src/to&#45;async&#45;&gt;src/transform</title>
<path fill="none" stroke="#757575" d="M282.193,-143.697C282.193,-135.983 282.193,-126.712 282.193,-118.112"/>
<polygon fill="#757575" stroke="#757575" points="285.693,-118.104 282.193,-108.104 278.693,-118.104 285.693,-118.104"/>
</g>
<!-- src/to&#45;method&#45;&gt;src/transform -->
<g id="edge8" class="edge"><title>src/to&#45;method&#45;&gt;src/transform</title>
<path fill="none" stroke="#757575" d="M396.872,-145.983C375.051,-135.521 345.758,-121.477 322.24,-110.201"/>
<polygon fill="#757575" stroke="#757575" points="323.741,-107.039 313.211,-105.872 320.715,-113.351 323.741,-107.039"/>
</g>
<!-- src/to&#45;result&#45;&gt;src/transform -->
<g id="edge9" class="edge"><title>src/to&#45;result&#45;&gt;src/transform</title>
<path fill="none" stroke="#757575" d="M528.951,-149.86C521.043,-147.892 512.877,-145.874 505.193,-144 449.122,-130.329 385.01,-115.137 339.964,-104.536"/>
<polygon fill="#757575" stroke="#757575" points="340.618,-101.094 330.082,-102.212 339.015,-107.908 340.618,-101.094"/>
</g>
</g>
</svg>
